%TF.GenerationSoftware,KiCad,Pcbnew,(6.0.4)*%
%TF.CreationDate,2023-07-03T21:21:24-07:00*%
%TF.ProjectId,299_RadioConfig,3239395f-5261-4646-996f-436f6e666967,rev?*%
%TF.SameCoordinates,Original*%
%TF.FileFunction,Legend,Top*%
%TF.FilePolarity,Positive*%
%FSLAX46Y46*%
G04 Gerber Fmt 4.6, Leading zero omitted, Abs format (unit mm)*
G04 Created by KiCad (PCBNEW (6.0.4)) date 2023-07-03 21:21:24*
%MOMM*%
%LPD*%
G01*
G04 APERTURE LIST*
%ADD10C,0.150000*%
%ADD11C,0.250000*%
%ADD12C,0.120000*%
G04 APERTURE END LIST*
D10*
X138452380Y-105599761D02*
X138595238Y-105647380D01*
X138833333Y-105647380D01*
X138928571Y-105599761D01*
X138976190Y-105552142D01*
X139023809Y-105456904D01*
X139023809Y-105361666D01*
X138976190Y-105266428D01*
X138928571Y-105218809D01*
X138833333Y-105171190D01*
X138642857Y-105123571D01*
X138547619Y-105075952D01*
X138500000Y-105028333D01*
X138452380Y-104933095D01*
X138452380Y-104837857D01*
X138500000Y-104742619D01*
X138547619Y-104695000D01*
X138642857Y-104647380D01*
X138880952Y-104647380D01*
X139023809Y-104695000D01*
X139452380Y-105647380D02*
X139452380Y-104980714D01*
X139452380Y-104647380D02*
X139404761Y-104695000D01*
X139452380Y-104742619D01*
X139500000Y-104695000D01*
X139452380Y-104647380D01*
X139452380Y-104742619D01*
X139928571Y-105647380D02*
X139928571Y-104980714D01*
X139928571Y-105075952D02*
X139976190Y-105028333D01*
X140071428Y-104980714D01*
X140214285Y-104980714D01*
X140309523Y-105028333D01*
X140357142Y-105123571D01*
X140357142Y-105647380D01*
X140357142Y-105123571D02*
X140404761Y-105028333D01*
X140500000Y-104980714D01*
X140642857Y-104980714D01*
X140738095Y-105028333D01*
X140785714Y-105123571D01*
X140785714Y-105647380D01*
X141404761Y-105647380D02*
X141309523Y-105599761D01*
X141261904Y-105552142D01*
X141214285Y-105456904D01*
X141214285Y-105171190D01*
X141261904Y-105075952D01*
X141309523Y-105028333D01*
X141404761Y-104980714D01*
X141547619Y-104980714D01*
X141642857Y-105028333D01*
X141690476Y-105075952D01*
X141738095Y-105171190D01*
X141738095Y-105456904D01*
X141690476Y-105552142D01*
X141642857Y-105599761D01*
X141547619Y-105647380D01*
X141404761Y-105647380D01*
X142166666Y-104980714D02*
X142166666Y-105647380D01*
X142166666Y-105075952D02*
X142214285Y-105028333D01*
X142309523Y-104980714D01*
X142452380Y-104980714D01*
X142547619Y-105028333D01*
X142595238Y-105123571D01*
X142595238Y-105647380D01*
X143833333Y-105266428D02*
X144595238Y-105266428D01*
X145785714Y-105361666D02*
X146261904Y-105361666D01*
X145690476Y-105647380D02*
X146023809Y-104647380D01*
X146357142Y-105647380D01*
X146833333Y-105647380D02*
X146738095Y-105599761D01*
X146690476Y-105504523D01*
X146690476Y-104647380D01*
X147119047Y-104980714D02*
X147357142Y-105647380D01*
X147595238Y-104980714D02*
X147357142Y-105647380D01*
X147261904Y-105885476D01*
X147214285Y-105933095D01*
X147119047Y-105980714D01*
X135119047Y-106733571D02*
X135452380Y-106733571D01*
X135595238Y-107257380D02*
X135119047Y-107257380D01*
X135119047Y-106257380D01*
X135595238Y-106257380D01*
X136595238Y-107162142D02*
X136547619Y-107209761D01*
X136404761Y-107257380D01*
X136309523Y-107257380D01*
X136166666Y-107209761D01*
X136071428Y-107114523D01*
X136023809Y-107019285D01*
X135976190Y-106828809D01*
X135976190Y-106685952D01*
X136023809Y-106495476D01*
X136071428Y-106400238D01*
X136166666Y-106305000D01*
X136309523Y-106257380D01*
X136404761Y-106257380D01*
X136547619Y-106305000D01*
X136595238Y-106352619D01*
X137023809Y-106733571D02*
X137357142Y-106733571D01*
X137500000Y-107257380D02*
X137023809Y-107257380D01*
X137023809Y-106257380D01*
X137500000Y-106257380D01*
X138642857Y-106352619D02*
X138690476Y-106305000D01*
X138785714Y-106257380D01*
X139023809Y-106257380D01*
X139119047Y-106305000D01*
X139166666Y-106352619D01*
X139214285Y-106447857D01*
X139214285Y-106543095D01*
X139166666Y-106685952D01*
X138595238Y-107257380D01*
X139214285Y-107257380D01*
X139690476Y-107257380D02*
X139880952Y-107257380D01*
X139976190Y-107209761D01*
X140023809Y-107162142D01*
X140119047Y-107019285D01*
X140166666Y-106828809D01*
X140166666Y-106447857D01*
X140119047Y-106352619D01*
X140071428Y-106305000D01*
X139976190Y-106257380D01*
X139785714Y-106257380D01*
X139690476Y-106305000D01*
X139642857Y-106352619D01*
X139595238Y-106447857D01*
X139595238Y-106685952D01*
X139642857Y-106781190D01*
X139690476Y-106828809D01*
X139785714Y-106876428D01*
X139976190Y-106876428D01*
X140071428Y-106828809D01*
X140119047Y-106781190D01*
X140166666Y-106685952D01*
X140642857Y-107257380D02*
X140833333Y-107257380D01*
X140928571Y-107209761D01*
X140976190Y-107162142D01*
X141071428Y-107019285D01*
X141119047Y-106828809D01*
X141119047Y-106447857D01*
X141071428Y-106352619D01*
X141023809Y-106305000D01*
X140928571Y-106257380D01*
X140738095Y-106257380D01*
X140642857Y-106305000D01*
X140595238Y-106352619D01*
X140547619Y-106447857D01*
X140547619Y-106685952D01*
X140595238Y-106781190D01*
X140642857Y-106828809D01*
X140738095Y-106876428D01*
X140928571Y-106876428D01*
X141023809Y-106828809D01*
X141071428Y-106781190D01*
X141119047Y-106685952D01*
X142880952Y-107162142D02*
X142833333Y-107209761D01*
X142690476Y-107257380D01*
X142595238Y-107257380D01*
X142452380Y-107209761D01*
X142357142Y-107114523D01*
X142309523Y-107019285D01*
X142261904Y-106828809D01*
X142261904Y-106685952D01*
X142309523Y-106495476D01*
X142357142Y-106400238D01*
X142452380Y-106305000D01*
X142595238Y-106257380D01*
X142690476Y-106257380D01*
X142833333Y-106305000D01*
X142880952Y-106352619D01*
X143452380Y-107257380D02*
X143357142Y-107209761D01*
X143309523Y-107114523D01*
X143309523Y-106257380D01*
X143976190Y-107257380D02*
X143880952Y-107209761D01*
X143833333Y-107162142D01*
X143785714Y-107066904D01*
X143785714Y-106781190D01*
X143833333Y-106685952D01*
X143880952Y-106638333D01*
X143976190Y-106590714D01*
X144119047Y-106590714D01*
X144214285Y-106638333D01*
X144261904Y-106685952D01*
X144309523Y-106781190D01*
X144309523Y-107066904D01*
X144261904Y-107162142D01*
X144214285Y-107209761D01*
X144119047Y-107257380D01*
X143976190Y-107257380D01*
X145166666Y-107209761D02*
X145071428Y-107257380D01*
X144880952Y-107257380D01*
X144785714Y-107209761D01*
X144738095Y-107162142D01*
X144690476Y-107066904D01*
X144690476Y-106781190D01*
X144738095Y-106685952D01*
X144785714Y-106638333D01*
X144880952Y-106590714D01*
X145071428Y-106590714D01*
X145166666Y-106638333D01*
X145595238Y-107257380D02*
X145595238Y-106257380D01*
X145690476Y-106876428D02*
X145976190Y-107257380D01*
X145976190Y-106590714D02*
X145595238Y-106971666D01*
X147738095Y-107257380D02*
X147404761Y-106781190D01*
X147166666Y-107257380D02*
X147166666Y-106257380D01*
X147547619Y-106257380D01*
X147642857Y-106305000D01*
X147690476Y-106352619D01*
X147738095Y-106447857D01*
X147738095Y-106590714D01*
X147690476Y-106685952D01*
X147642857Y-106733571D01*
X147547619Y-106781190D01*
X147166666Y-106781190D01*
X148595238Y-107257380D02*
X148595238Y-106733571D01*
X148547619Y-106638333D01*
X148452380Y-106590714D01*
X148261904Y-106590714D01*
X148166666Y-106638333D01*
X148595238Y-107209761D02*
X148500000Y-107257380D01*
X148261904Y-107257380D01*
X148166666Y-107209761D01*
X148119047Y-107114523D01*
X148119047Y-107019285D01*
X148166666Y-106924047D01*
X148261904Y-106876428D01*
X148500000Y-106876428D01*
X148595238Y-106828809D01*
X149500000Y-107257380D02*
X149500000Y-106257380D01*
X149500000Y-107209761D02*
X149404761Y-107257380D01*
X149214285Y-107257380D01*
X149119047Y-107209761D01*
X149071428Y-107162142D01*
X149023809Y-107066904D01*
X149023809Y-106781190D01*
X149071428Y-106685952D01*
X149119047Y-106638333D01*
X149214285Y-106590714D01*
X149404761Y-106590714D01*
X149500000Y-106638333D01*
X149976190Y-107257380D02*
X149976190Y-106590714D01*
X149976190Y-106257380D02*
X149928571Y-106305000D01*
X149976190Y-106352619D01*
X150023809Y-106305000D01*
X149976190Y-106257380D01*
X149976190Y-106352619D01*
X150595238Y-107257380D02*
X150500000Y-107209761D01*
X150452380Y-107162142D01*
X150404761Y-107066904D01*
X150404761Y-106781190D01*
X150452380Y-106685952D01*
X150500000Y-106638333D01*
X150595238Y-106590714D01*
X150738095Y-106590714D01*
X150833333Y-106638333D01*
X150880952Y-106685952D01*
X150928571Y-106781190D01*
X150928571Y-107066904D01*
X150880952Y-107162142D01*
X150833333Y-107209761D01*
X150738095Y-107257380D01*
X150595238Y-107257380D01*
D11*
%TO.C,U2*%
X151595238Y-89976190D02*
X149976190Y-89976190D01*
X149785714Y-90071428D01*
X149690476Y-90166666D01*
X149595238Y-90357142D01*
X149595238Y-90738095D01*
X149690476Y-90928571D01*
X149785714Y-91023809D01*
X149976190Y-91119047D01*
X151595238Y-91119047D01*
X151404761Y-91976190D02*
X151500000Y-92071428D01*
X151595238Y-92261904D01*
X151595238Y-92738095D01*
X151500000Y-92928571D01*
X151404761Y-93023809D01*
X151214285Y-93119047D01*
X151023809Y-93119047D01*
X150738095Y-93023809D01*
X149595238Y-91880952D01*
X149595238Y-93119047D01*
D10*
%TO.C,C3*%
X146833333Y-57107142D02*
X146785714Y-57154761D01*
X146642857Y-57202380D01*
X146547619Y-57202380D01*
X146404761Y-57154761D01*
X146309523Y-57059523D01*
X146261904Y-56964285D01*
X146214285Y-56773809D01*
X146214285Y-56630952D01*
X146261904Y-56440476D01*
X146309523Y-56345238D01*
X146404761Y-56250000D01*
X146547619Y-56202380D01*
X146642857Y-56202380D01*
X146785714Y-56250000D01*
X146833333Y-56297619D01*
X147166666Y-56202380D02*
X147785714Y-56202380D01*
X147452380Y-56583333D01*
X147595238Y-56583333D01*
X147690476Y-56630952D01*
X147738095Y-56678571D01*
X147785714Y-56773809D01*
X147785714Y-57011904D01*
X147738095Y-57107142D01*
X147690476Y-57154761D01*
X147595238Y-57202380D01*
X147309523Y-57202380D01*
X147214285Y-57154761D01*
X147166666Y-57107142D01*
%TO.C,C2*%
X153583333Y-57757142D02*
X153535714Y-57804761D01*
X153392857Y-57852380D01*
X153297619Y-57852380D01*
X153154761Y-57804761D01*
X153059523Y-57709523D01*
X153011904Y-57614285D01*
X152964285Y-57423809D01*
X152964285Y-57280952D01*
X153011904Y-57090476D01*
X153059523Y-56995238D01*
X153154761Y-56900000D01*
X153297619Y-56852380D01*
X153392857Y-56852380D01*
X153535714Y-56900000D01*
X153583333Y-56947619D01*
X153964285Y-56947619D02*
X154011904Y-56900000D01*
X154107142Y-56852380D01*
X154345238Y-56852380D01*
X154440476Y-56900000D01*
X154488095Y-56947619D01*
X154535714Y-57042857D01*
X154535714Y-57138095D01*
X154488095Y-57280952D01*
X153916666Y-57852380D01*
X154535714Y-57852380D01*
%TO.C,R1*%
X152822380Y-70166666D02*
X152346190Y-70500000D01*
X152822380Y-70738095D02*
X151822380Y-70738095D01*
X151822380Y-70357142D01*
X151870000Y-70261904D01*
X151917619Y-70214285D01*
X152012857Y-70166666D01*
X152155714Y-70166666D01*
X152250952Y-70214285D01*
X152298571Y-70261904D01*
X152346190Y-70357142D01*
X152346190Y-70738095D01*
X152822380Y-69214285D02*
X152822380Y-69785714D01*
X152822380Y-69500000D02*
X151822380Y-69500000D01*
X151965238Y-69595238D01*
X152060476Y-69690476D01*
X152108095Y-69785714D01*
%TO.C,SW5*%
X180666666Y-87074761D02*
X180809523Y-87122380D01*
X181047619Y-87122380D01*
X181142857Y-87074761D01*
X181190476Y-87027142D01*
X181238095Y-86931904D01*
X181238095Y-86836666D01*
X181190476Y-86741428D01*
X181142857Y-86693809D01*
X181047619Y-86646190D01*
X180857142Y-86598571D01*
X180761904Y-86550952D01*
X180714285Y-86503333D01*
X180666666Y-86408095D01*
X180666666Y-86312857D01*
X180714285Y-86217619D01*
X180761904Y-86170000D01*
X180857142Y-86122380D01*
X181095238Y-86122380D01*
X181238095Y-86170000D01*
X181571428Y-86122380D02*
X181809523Y-87122380D01*
X182000000Y-86408095D01*
X182190476Y-87122380D01*
X182428571Y-86122380D01*
X183285714Y-86122380D02*
X182809523Y-86122380D01*
X182761904Y-86598571D01*
X182809523Y-86550952D01*
X182904761Y-86503333D01*
X183142857Y-86503333D01*
X183238095Y-86550952D01*
X183285714Y-86598571D01*
X183333333Y-86693809D01*
X183333333Y-86931904D01*
X183285714Y-87027142D01*
X183238095Y-87074761D01*
X183142857Y-87122380D01*
X182904761Y-87122380D01*
X182809523Y-87074761D01*
X182761904Y-87027142D01*
%TO.C,R2*%
X157822380Y-70166666D02*
X157346190Y-70500000D01*
X157822380Y-70738095D02*
X156822380Y-70738095D01*
X156822380Y-70357142D01*
X156870000Y-70261904D01*
X156917619Y-70214285D01*
X157012857Y-70166666D01*
X157155714Y-70166666D01*
X157250952Y-70214285D01*
X157298571Y-70261904D01*
X157346190Y-70357142D01*
X157346190Y-70738095D01*
X156917619Y-69785714D02*
X156870000Y-69738095D01*
X156822380Y-69642857D01*
X156822380Y-69404761D01*
X156870000Y-69309523D01*
X156917619Y-69261904D01*
X157012857Y-69214285D01*
X157108095Y-69214285D01*
X157250952Y-69261904D01*
X157822380Y-69833333D01*
X157822380Y-69214285D01*
%TO.C,LS1*%
X143712380Y-55142857D02*
X143712380Y-55619047D01*
X142712380Y-55619047D01*
X143664761Y-54857142D02*
X143712380Y-54714285D01*
X143712380Y-54476190D01*
X143664761Y-54380952D01*
X143617142Y-54333333D01*
X143521904Y-54285714D01*
X143426666Y-54285714D01*
X143331428Y-54333333D01*
X143283809Y-54380952D01*
X143236190Y-54476190D01*
X143188571Y-54666666D01*
X143140952Y-54761904D01*
X143093333Y-54809523D01*
X142998095Y-54857142D01*
X142902857Y-54857142D01*
X142807619Y-54809523D01*
X142760000Y-54761904D01*
X142712380Y-54666666D01*
X142712380Y-54428571D01*
X142760000Y-54285714D01*
X143712380Y-53333333D02*
X143712380Y-53904761D01*
X143712380Y-53619047D02*
X142712380Y-53619047D01*
X142855238Y-53714285D01*
X142950476Y-53809523D01*
X142998095Y-53904761D01*
%TO.C,SW1*%
X181216666Y-51204761D02*
X181359523Y-51252380D01*
X181597619Y-51252380D01*
X181692857Y-51204761D01*
X181740476Y-51157142D01*
X181788095Y-51061904D01*
X181788095Y-50966666D01*
X181740476Y-50871428D01*
X181692857Y-50823809D01*
X181597619Y-50776190D01*
X181407142Y-50728571D01*
X181311904Y-50680952D01*
X181264285Y-50633333D01*
X181216666Y-50538095D01*
X181216666Y-50442857D01*
X181264285Y-50347619D01*
X181311904Y-50300000D01*
X181407142Y-50252380D01*
X181645238Y-50252380D01*
X181788095Y-50300000D01*
X182121428Y-50252380D02*
X182359523Y-51252380D01*
X182550000Y-50538095D01*
X182740476Y-51252380D01*
X182978571Y-50252380D01*
X183883333Y-51252380D02*
X183311904Y-51252380D01*
X183597619Y-51252380D02*
X183597619Y-50252380D01*
X183502380Y-50395238D01*
X183407142Y-50490476D01*
X183311904Y-50538095D01*
%TO.C,SW3*%
X180666666Y-66074761D02*
X180809523Y-66122380D01*
X181047619Y-66122380D01*
X181142857Y-66074761D01*
X181190476Y-66027142D01*
X181238095Y-65931904D01*
X181238095Y-65836666D01*
X181190476Y-65741428D01*
X181142857Y-65693809D01*
X181047619Y-65646190D01*
X180857142Y-65598571D01*
X180761904Y-65550952D01*
X180714285Y-65503333D01*
X180666666Y-65408095D01*
X180666666Y-65312857D01*
X180714285Y-65217619D01*
X180761904Y-65170000D01*
X180857142Y-65122380D01*
X181095238Y-65122380D01*
X181238095Y-65170000D01*
X181571428Y-65122380D02*
X181809523Y-66122380D01*
X182000000Y-65408095D01*
X182190476Y-66122380D01*
X182428571Y-65122380D01*
X182714285Y-65122380D02*
X183333333Y-65122380D01*
X183000000Y-65503333D01*
X183142857Y-65503333D01*
X183238095Y-65550952D01*
X183285714Y-65598571D01*
X183333333Y-65693809D01*
X183333333Y-65931904D01*
X183285714Y-66027142D01*
X183238095Y-66074761D01*
X183142857Y-66122380D01*
X182857142Y-66122380D01*
X182761904Y-66074761D01*
X182714285Y-66027142D01*
%TO.C,R3*%
X149833333Y-58082380D02*
X149500000Y-57606190D01*
X149261904Y-58082380D02*
X149261904Y-57082380D01*
X149642857Y-57082380D01*
X149738095Y-57130000D01*
X149785714Y-57177619D01*
X149833333Y-57272857D01*
X149833333Y-57415714D01*
X149785714Y-57510952D01*
X149738095Y-57558571D01*
X149642857Y-57606190D01*
X149261904Y-57606190D01*
X150166666Y-57082380D02*
X150785714Y-57082380D01*
X150452380Y-57463333D01*
X150595238Y-57463333D01*
X150690476Y-57510952D01*
X150738095Y-57558571D01*
X150785714Y-57653809D01*
X150785714Y-57891904D01*
X150738095Y-57987142D01*
X150690476Y-58034761D01*
X150595238Y-58082380D01*
X150309523Y-58082380D01*
X150214285Y-58034761D01*
X150166666Y-57987142D01*
%TO.C,SW2*%
X180666666Y-73074761D02*
X180809523Y-73122380D01*
X181047619Y-73122380D01*
X181142857Y-73074761D01*
X181190476Y-73027142D01*
X181238095Y-72931904D01*
X181238095Y-72836666D01*
X181190476Y-72741428D01*
X181142857Y-72693809D01*
X181047619Y-72646190D01*
X180857142Y-72598571D01*
X180761904Y-72550952D01*
X180714285Y-72503333D01*
X180666666Y-72408095D01*
X180666666Y-72312857D01*
X180714285Y-72217619D01*
X180761904Y-72170000D01*
X180857142Y-72122380D01*
X181095238Y-72122380D01*
X181238095Y-72170000D01*
X181571428Y-72122380D02*
X181809523Y-73122380D01*
X182000000Y-72408095D01*
X182190476Y-73122380D01*
X182428571Y-72122380D01*
X182761904Y-72217619D02*
X182809523Y-72170000D01*
X182904761Y-72122380D01*
X183142857Y-72122380D01*
X183238095Y-72170000D01*
X183285714Y-72217619D01*
X183333333Y-72312857D01*
X183333333Y-72408095D01*
X183285714Y-72550952D01*
X182714285Y-73122380D01*
X183333333Y-73122380D01*
%TO.C,BZ1*%
X187619047Y-106098571D02*
X187761904Y-106146190D01*
X187809523Y-106193809D01*
X187857142Y-106289047D01*
X187857142Y-106431904D01*
X187809523Y-106527142D01*
X187761904Y-106574761D01*
X187666666Y-106622380D01*
X187285714Y-106622380D01*
X187285714Y-105622380D01*
X187619047Y-105622380D01*
X187714285Y-105670000D01*
X187761904Y-105717619D01*
X187809523Y-105812857D01*
X187809523Y-105908095D01*
X187761904Y-106003333D01*
X187714285Y-106050952D01*
X187619047Y-106098571D01*
X187285714Y-106098571D01*
X188190476Y-105622380D02*
X188857142Y-105622380D01*
X188190476Y-106622380D01*
X188857142Y-106622380D01*
X189761904Y-106622380D02*
X189190476Y-106622380D01*
X189476190Y-106622380D02*
X189476190Y-105622380D01*
X189380952Y-105765238D01*
X189285714Y-105860476D01*
X189190476Y-105908095D01*
%TO.C,C1*%
X140833333Y-66777142D02*
X140785714Y-66824761D01*
X140642857Y-66872380D01*
X140547619Y-66872380D01*
X140404761Y-66824761D01*
X140309523Y-66729523D01*
X140261904Y-66634285D01*
X140214285Y-66443809D01*
X140214285Y-66300952D01*
X140261904Y-66110476D01*
X140309523Y-66015238D01*
X140404761Y-65920000D01*
X140547619Y-65872380D01*
X140642857Y-65872380D01*
X140785714Y-65920000D01*
X140833333Y-65967619D01*
X141785714Y-66872380D02*
X141214285Y-66872380D01*
X141500000Y-66872380D02*
X141500000Y-65872380D01*
X141404761Y-66015238D01*
X141309523Y-66110476D01*
X141214285Y-66158095D01*
%TO.C,U3*%
X134322380Y-73751904D02*
X135131904Y-73751904D01*
X135227142Y-73704285D01*
X135274761Y-73656666D01*
X135322380Y-73561428D01*
X135322380Y-73370952D01*
X135274761Y-73275714D01*
X135227142Y-73228095D01*
X135131904Y-73180476D01*
X134322380Y-73180476D01*
X134322380Y-72799523D02*
X134322380Y-72180476D01*
X134703333Y-72513809D01*
X134703333Y-72370952D01*
X134750952Y-72275714D01*
X134798571Y-72228095D01*
X134893809Y-72180476D01*
X135131904Y-72180476D01*
X135227142Y-72228095D01*
X135274761Y-72275714D01*
X135322380Y-72370952D01*
X135322380Y-72656666D01*
X135274761Y-72751904D01*
X135227142Y-72799523D01*
%TO.C,DISP1*%
X152047619Y-83497380D02*
X152047619Y-82497380D01*
X152285714Y-82497380D01*
X152428571Y-82545000D01*
X152523809Y-82640238D01*
X152571428Y-82735476D01*
X152619047Y-82925952D01*
X152619047Y-83068809D01*
X152571428Y-83259285D01*
X152523809Y-83354523D01*
X152428571Y-83449761D01*
X152285714Y-83497380D01*
X152047619Y-83497380D01*
X153047619Y-83497380D02*
X153047619Y-82497380D01*
X153476190Y-83449761D02*
X153619047Y-83497380D01*
X153857142Y-83497380D01*
X153952380Y-83449761D01*
X154000000Y-83402142D01*
X154047619Y-83306904D01*
X154047619Y-83211666D01*
X154000000Y-83116428D01*
X153952380Y-83068809D01*
X153857142Y-83021190D01*
X153666666Y-82973571D01*
X153571428Y-82925952D01*
X153523809Y-82878333D01*
X153476190Y-82783095D01*
X153476190Y-82687857D01*
X153523809Y-82592619D01*
X153571428Y-82545000D01*
X153666666Y-82497380D01*
X153904761Y-82497380D01*
X154047619Y-82545000D01*
X154476190Y-83497380D02*
X154476190Y-82497380D01*
X154857142Y-82497380D01*
X154952380Y-82545000D01*
X155000000Y-82592619D01*
X155047619Y-82687857D01*
X155047619Y-82830714D01*
X155000000Y-82925952D01*
X154952380Y-82973571D01*
X154857142Y-83021190D01*
X154476190Y-83021190D01*
X156000000Y-83497380D02*
X155428571Y-83497380D01*
X155714285Y-83497380D02*
X155714285Y-82497380D01*
X155619047Y-82640238D01*
X155523809Y-82735476D01*
X155428571Y-82783095D01*
%TO.C,SW4*%
X180666666Y-80074761D02*
X180809523Y-80122380D01*
X181047619Y-80122380D01*
X181142857Y-80074761D01*
X181190476Y-80027142D01*
X181238095Y-79931904D01*
X181238095Y-79836666D01*
X181190476Y-79741428D01*
X181142857Y-79693809D01*
X181047619Y-79646190D01*
X180857142Y-79598571D01*
X180761904Y-79550952D01*
X180714285Y-79503333D01*
X180666666Y-79408095D01*
X180666666Y-79312857D01*
X180714285Y-79217619D01*
X180761904Y-79170000D01*
X180857142Y-79122380D01*
X181095238Y-79122380D01*
X181238095Y-79170000D01*
X181571428Y-79122380D02*
X181809523Y-80122380D01*
X182000000Y-79408095D01*
X182190476Y-80122380D01*
X182428571Y-79122380D01*
X183238095Y-79455714D02*
X183238095Y-80122380D01*
X183000000Y-79074761D02*
X182761904Y-79789047D01*
X183380952Y-79789047D01*
%TO.C,C4*%
X129937142Y-90166666D02*
X129984761Y-90214285D01*
X130032380Y-90357142D01*
X130032380Y-90452380D01*
X129984761Y-90595238D01*
X129889523Y-90690476D01*
X129794285Y-90738095D01*
X129603809Y-90785714D01*
X129460952Y-90785714D01*
X129270476Y-90738095D01*
X129175238Y-90690476D01*
X129080000Y-90595238D01*
X129032380Y-90452380D01*
X129032380Y-90357142D01*
X129080000Y-90214285D01*
X129127619Y-90166666D01*
X129365714Y-89309523D02*
X130032380Y-89309523D01*
X128984761Y-89547619D02*
X129699047Y-89785714D01*
X129699047Y-89166666D01*
%TO.C,U2*%
X149000000Y-81500000D02*
X135000000Y-81500000D01*
X135000000Y-81500000D02*
X135000000Y-100500000D01*
X135000000Y-100500000D02*
X149000000Y-100500000D01*
X149000000Y-100500000D02*
X149000000Y-81500000D01*
D12*
%TO.C,C3*%
X149620000Y-53000000D02*
G75*
G03*
X149620000Y-53000000I-2620000J0D01*
G01*
%TO.C,C2*%
X157020000Y-53000000D02*
G75*
G03*
X157020000Y-53000000I-3270000J0D01*
G01*
%TO.C,R1*%
X148630000Y-66730000D02*
X148630000Y-73270000D01*
X150000000Y-65960000D02*
X150000000Y-66730000D01*
X148630000Y-73270000D02*
X151370000Y-73270000D01*
X151370000Y-73270000D02*
X151370000Y-66730000D01*
X151370000Y-66730000D02*
X148630000Y-66730000D01*
X150000000Y-74040000D02*
X150000000Y-73270000D01*
%TO.C,SW5*%
X180670000Y-87670000D02*
X182000000Y-87670000D01*
X183330000Y-90270000D02*
X183330000Y-92870000D01*
X180670000Y-90270000D02*
X180670000Y-92870000D01*
X180670000Y-90270000D02*
X183330000Y-90270000D01*
X180670000Y-89000000D02*
X180670000Y-87670000D01*
X180670000Y-92870000D02*
X183330000Y-92870000D01*
%TO.C,R2*%
X155000000Y-74040000D02*
X155000000Y-73270000D01*
X153630000Y-73270000D02*
X156370000Y-73270000D01*
X156370000Y-73270000D02*
X156370000Y-66730000D01*
X155000000Y-65960000D02*
X155000000Y-66730000D01*
X153630000Y-66730000D02*
X153630000Y-73270000D01*
X156370000Y-66730000D02*
X153630000Y-66730000D01*
%TO.C,LS1*%
X142261000Y-59560000D02*
X132340000Y-59560000D01*
X135761000Y-55966000D02*
X135726000Y-55931000D01*
X139301000Y-49440000D02*
X139301000Y-59560000D01*
X142261000Y-49440000D02*
X142261000Y-59560000D01*
X132900000Y-49440000D02*
X132900000Y-59560000D01*
X134400000Y-49440000D02*
X134400000Y-59560000D01*
X132100000Y-49200000D02*
X132100000Y-49700000D01*
X132840000Y-49200000D02*
X132100000Y-49200000D01*
X132340000Y-49440000D02*
X132340000Y-59560000D01*
X138275000Y-58070000D02*
X138239000Y-58035000D01*
X135977000Y-55773000D02*
X135931000Y-55726000D01*
X142261000Y-49440000D02*
X132340000Y-49440000D01*
X138069000Y-58275000D02*
X138023000Y-58228000D01*
X137684000Y-50465000D02*
G75*
G03*
X136316958Y-50464573I-684001J-1534993D01*
G01*
X136316000Y-53535001D02*
G75*
G03*
X137683042Y-53535427I684000J1535001D01*
G01*
X135465000Y-51316000D02*
G75*
G03*
X135319747Y-52028805I1535001J-683999D01*
G01*
X138535000Y-52684000D02*
G75*
G03*
X138535427Y-51316958I-1534993J684001D01*
G01*
X135320000Y-52000000D02*
G75*
G03*
X135465244Y-52683318I1680000J0D01*
G01*
X138680000Y-57000000D02*
G75*
G03*
X138680000Y-57000000I-1680000J0D01*
G01*
%TO.C,SW1*%
X185350000Y-51700000D02*
X180550000Y-51700000D01*
X185450000Y-64300000D02*
X180550000Y-64300000D01*
X193950000Y-51700000D02*
X193950000Y-54300000D01*
X189050000Y-51700000D02*
X193950000Y-51700000D01*
X187250000Y-57500000D02*
X187250000Y-58500000D01*
X193950000Y-64300000D02*
X189050000Y-64300000D01*
X193950000Y-61700000D02*
X193950000Y-64300000D01*
X186750000Y-58000000D02*
X187750000Y-58000000D01*
X179450000Y-53900000D02*
X180050000Y-53900000D01*
X180050000Y-53900000D02*
X179750000Y-54200000D01*
X180550000Y-64300000D02*
X180550000Y-61500000D01*
X193950000Y-56700000D02*
X193950000Y-59300000D01*
X179750000Y-54200000D02*
X179450000Y-53900000D01*
X180550000Y-51700000D02*
X180550000Y-54200000D01*
X190250000Y-58000000D02*
G75*
G03*
X190250000Y-58000000I-3000000J0D01*
G01*
%TO.C,SW3*%
X180670000Y-69270000D02*
X180670000Y-71870000D01*
X183330000Y-69270000D02*
X183330000Y-71870000D01*
X180670000Y-68000000D02*
X180670000Y-66670000D01*
X180670000Y-71870000D02*
X183330000Y-71870000D01*
X180670000Y-69270000D02*
X183330000Y-69270000D01*
X180670000Y-66670000D02*
X182000000Y-66670000D01*
%TO.C,R3*%
X146730000Y-61370000D02*
X153270000Y-61370000D01*
X146730000Y-58630000D02*
X146730000Y-61370000D01*
X153270000Y-61370000D02*
X153270000Y-58630000D01*
X154040000Y-60000000D02*
X153270000Y-60000000D01*
X153270000Y-58630000D02*
X146730000Y-58630000D01*
X145960000Y-60000000D02*
X146730000Y-60000000D01*
%TO.C,SW2*%
X180670000Y-78870000D02*
X183330000Y-78870000D01*
X180670000Y-76270000D02*
X183330000Y-76270000D01*
X180670000Y-76270000D02*
X180670000Y-78870000D01*
X183330000Y-76270000D02*
X183330000Y-78870000D01*
X180670000Y-75000000D02*
X180670000Y-73670000D01*
X180670000Y-73670000D02*
X182000000Y-73670000D01*
%TO.C,BZ1*%
X194900000Y-100500000D02*
G75*
G03*
X194900000Y-97500001I-6400000J1500000D01*
G01*
X194730000Y-99000000D02*
G75*
G03*
X194730000Y-99000000I-6230000J0D01*
G01*
%TO.C,C1*%
X138290000Y-64000000D02*
X138980000Y-64000000D01*
X143710000Y-64000000D02*
X143020000Y-64000000D01*
X138980000Y-62580000D02*
X138980000Y-65420000D01*
X143020000Y-65420000D02*
X143020000Y-62580000D01*
X143020000Y-62580000D02*
X138980000Y-62580000D01*
X138980000Y-65420000D02*
X143020000Y-65420000D01*
%TO.C,U3*%
X135870000Y-75640000D02*
X146150000Y-75640000D01*
X146150000Y-75640000D02*
X146150000Y-70340000D01*
X135870000Y-73990000D02*
X135870000Y-75640000D01*
X135870000Y-70340000D02*
X135870000Y-71990000D01*
X146150000Y-70340000D02*
X135870000Y-70340000D01*
X135870000Y-73990000D02*
G75*
G03*
X135870000Y-71990000I0J1000000D01*
G01*
%TO.C,DISP1*%
X152670000Y-101945000D02*
X155330000Y-101945000D01*
X155330000Y-86645000D02*
X155330000Y-101945000D01*
X152670000Y-85375000D02*
X152670000Y-84045000D01*
X152670000Y-86645000D02*
X152670000Y-101945000D01*
X152670000Y-86645000D02*
X155330000Y-86645000D01*
X152670000Y-84045000D02*
X154000000Y-84045000D01*
%TO.C,SW4*%
X180670000Y-85870000D02*
X183330000Y-85870000D01*
X180670000Y-83270000D02*
X183330000Y-83270000D01*
X180670000Y-80670000D02*
X182000000Y-80670000D01*
X183330000Y-83270000D02*
X183330000Y-85870000D01*
X180670000Y-82000000D02*
X180670000Y-80670000D01*
X180670000Y-83270000D02*
X180670000Y-85870000D01*
%TO.C,C4*%
X133420000Y-87980000D02*
X130580000Y-87980000D01*
X132000000Y-92710000D02*
X132000000Y-92020000D01*
X130580000Y-87980000D02*
X130580000Y-92020000D01*
X130580000Y-92020000D02*
X133420000Y-92020000D01*
X132000000Y-87290000D02*
X132000000Y-87980000D01*
X133420000Y-92020000D02*
X133420000Y-87980000D01*
%TD*%
M02*
