M48
; DRILL file {KiCad (6.0.4)} date Mon Jul  3 20:57:24 2023
; FORMAT={-:-/ absolute / inch / decimal}
; #@! TF.CreationDate,2023-07-03T20:57:24-07:00
; #@! TF.GenerationSoftware,Kicad,Pcbnew,(6.0.4)
; #@! TF.FileFunction,Plated,1,2,PTH
FMAT,2
INCH
; #@! TA.AperFunction,Plated,PTH,ComponentDrill
T1C0.0315
; #@! TA.AperFunction,Plated,PTH,ComponentDrill
T2C0.0394
; #@! TA.AperFunction,Plated,PTH,ComponentDrill
T3C0.0512
; #@! TA.AperFunction,Plated,PTH,ComponentDrill
T4C0.0866
%
G90
G05
T1
X5.1969Y-3.3957
X5.1969Y-3.6909
X5.4016Y-2.7236
X5.4016Y-3.0236
X5.4035Y-2.5197
X5.5016Y-2.7236
X5.5016Y-3.0236
X5.6016Y-2.7236
X5.6016Y-3.0236
X5.6988Y-2.5197
X5.7016Y-2.7236
X5.7016Y-3.0236
X5.7055Y-2.3622
X5.748Y-2.0866
X5.8268Y-2.0866
X5.9055Y-2.5559
X5.9055Y-2.9559
X6.0039Y-2.0866
X6.1024Y-2.0866
X6.1024Y-2.5559
X6.1024Y-2.9559
X6.1055Y-2.3622
T2
X5.3906Y-3.2827
X5.3906Y-3.8827
X5.4906Y-3.2827
X5.4906Y-3.8827
X5.5906Y-3.2827
X5.5906Y-3.8827
X5.6906Y-3.2827
X5.6906Y-3.8827
X5.7906Y-3.2827
X5.7906Y-3.8827
X6.063Y-3.3612
X6.063Y-3.4612
X6.063Y-3.5612
X6.063Y-3.6612
X6.063Y-3.7612
X6.063Y-3.8612
X6.063Y-3.9612
X6.25Y-2.1614
X6.25Y-2.2614
X6.25Y-2.3614
X6.25Y-2.4614
X6.25Y-2.5614
X6.25Y-2.6614
X6.25Y-2.7614
X6.25Y-2.8614
X6.25Y-2.9614
X6.25Y-3.0614
X6.25Y-3.1614
X6.25Y-3.2614
X6.25Y-3.3614
X6.25Y-3.4614
X6.25Y-3.5614
X6.25Y-3.6614
X6.25Y-3.7614
X6.25Y-3.8614
X6.25Y-3.9614
X6.25Y-4.0614
X6.95Y-2.1614
X6.95Y-2.2614
X6.95Y-2.3614
X6.95Y-2.4614
X6.95Y-2.5614
X6.95Y-2.6614
X6.95Y-2.7614
X6.95Y-2.8614
X6.95Y-2.9614
X6.95Y-3.0614
X6.95Y-3.1614
X6.95Y-3.2614
X6.95Y-3.3614
X6.95Y-3.4614
X6.95Y-3.5614
X6.95Y-3.6614
X6.95Y-3.7614
X6.95Y-3.8614
X6.95Y-3.9614
X6.95Y-4.0614
X7.0768Y-2.185
X7.0768Y-2.2835
X7.0768Y-2.3819
X7.1654Y-2.6772
X7.1654Y-2.7772
X7.1654Y-2.9528
X7.1654Y-3.0528
X7.1654Y-3.2283
X7.1654Y-3.3283
X7.1654Y-3.5039
X7.1654Y-3.6039
X7.3228Y-3.8976
X7.5197Y-3.8976
X7.6476Y-2.185
X7.6476Y-2.3819
T3
X5.3937Y-2.0472
X5.3937Y-2.2441
T4
X7.372Y-2.063
X7.372Y-2.5039
T0
M30
