%TF.GenerationSoftware,KiCad,Pcbnew,(6.0.4)*%
%TF.CreationDate,2023-07-03T21:21:24-07:00*%
%TF.ProjectId,299_RadioConfig,3239395f-5261-4646-996f-436f6e666967,rev?*%
%TF.SameCoordinates,Original*%
%TF.FileFunction,Copper,L1,Top*%
%TF.FilePolarity,Positive*%
%FSLAX46Y46*%
G04 Gerber Fmt 4.6, Leading zero omitted, Abs format (unit mm)*
G04 Created by KiCad (PCBNEW (6.0.4)) date 2023-07-03 21:21:24*
%MOMM*%
%LPD*%
G01*
G04 APERTURE LIST*
%TA.AperFunction,ComponentPad*%
%ADD10R,1.700000X1.700000*%
%TD*%
%TA.AperFunction,ComponentPad*%
%ADD11C,1.700000*%
%TD*%
%TA.AperFunction,ComponentPad*%
%ADD12C,1.600000*%
%TD*%
%TA.AperFunction,ComponentPad*%
%ADD13O,1.600000X1.600000*%
%TD*%
%TA.AperFunction,ComponentPad*%
%ADD14O,1.700000X1.700000*%
%TD*%
%TA.AperFunction,ComponentPad*%
%ADD15R,2.600000X2.600000*%
%TD*%
%TA.AperFunction,ComponentPad*%
%ADD16C,2.600000*%
%TD*%
%TA.AperFunction,ComponentPad*%
%ADD17R,2.000000X2.000000*%
%TD*%
%TA.AperFunction,ComponentPad*%
%ADD18C,2.000000*%
%TD*%
%TA.AperFunction,ComponentPad*%
%ADD19C,2.800000*%
%TD*%
%TA.AperFunction,ComponentPad*%
%ADD20R,1.600000X1.600000*%
%TD*%
%TA.AperFunction,Conductor*%
%ADD21C,0.750000*%
%TD*%
%TA.AperFunction,Conductor*%
%ADD22C,0.250000*%
%TD*%
%TA.AperFunction,Conductor*%
%ADD23C,0.500000*%
%TD*%
G04 APERTURE END LIST*
D10*
%TO.P,U2,1,SDIO*%
%TO.N,Net-(R2-Pad2)*%
X147080000Y-83380000D03*
D11*
%TO.P,U2,2,SCLK*%
%TO.N,Net-(R1-Pad2)*%
X144540000Y-83380000D03*
%TO.P,U2,3,N/C*%
%TO.N,unconnected-(U2-Pad3)*%
X142000000Y-83380000D03*
%TO.P,U2,4,N/C*%
%TO.N,unconnected-(U2-Pad4)*%
X139460000Y-83380000D03*
%TO.P,U2,5,VDD*%
%TO.N,Net-(DISP1-Pad2)*%
X136920000Y-83380000D03*
%TO.P,U2,6,GND*%
%TO.N,GND*%
X136920000Y-98620000D03*
%TO.P,U2,7,ROUT*%
%TO.N,unconnected-(U2-Pad7)*%
X139460000Y-98620000D03*
%TO.P,U2,8,LOUT*%
%TO.N,Net-(C4-Pad1)*%
X142000000Y-98620000D03*
%TO.P,U2,9,N/C*%
%TO.N,unconnected-(U2-Pad9)*%
X144540000Y-98620000D03*
%TO.P,U2,10,FMIN*%
%TO.N,unconnected-(U2-Pad10)*%
X147080000Y-98620000D03*
%TD*%
D12*
%TO.P,C3,1*%
%TO.N,Net-(C1-Pad1)*%
X148000000Y-53000000D03*
%TO.P,C3,2*%
%TO.N,Net-(C3-Pad2)*%
X146000000Y-53000000D03*
%TD*%
%TO.P,C2,1*%
%TO.N,GND*%
X155000000Y-53000000D03*
%TO.P,C2,2*%
%TO.N,Net-(C1-Pad1)*%
X152500000Y-53000000D03*
%TD*%
%TO.P,R1,1*%
%TO.N,Net-(DISP1-Pad2)*%
X150000000Y-64920000D03*
D13*
%TO.P,R1,2*%
%TO.N,Net-(R1-Pad2)*%
X150000000Y-75080000D03*
%TD*%
D10*
%TO.P,SW5,1,1*%
%TO.N,Net-(SW5-Pad1)*%
X182000000Y-89000000D03*
D14*
%TO.P,SW5,2,2*%
%TO.N,GND*%
X182000000Y-91540000D03*
%TD*%
D12*
%TO.P,R2,1*%
%TO.N,Net-(DISP1-Pad2)*%
X155000000Y-64920000D03*
D13*
%TO.P,R2,2*%
%TO.N,Net-(R2-Pad2)*%
X155000000Y-75080000D03*
%TD*%
D15*
%TO.P,LS1,1,1*%
%TO.N,Net-(C3-Pad2)*%
X137000000Y-52000000D03*
D16*
%TO.P,LS1,2,2*%
%TO.N,GND*%
X137000000Y-57000000D03*
%TD*%
D17*
%TO.P,SW1,A,A*%
%TO.N,Net-(SW1-PadA)*%
X179750000Y-55500000D03*
D18*
%TO.P,SW1,B,B*%
%TO.N,Net-(SW1-PadB)*%
X179750000Y-60500000D03*
%TO.P,SW1,C,C*%
%TO.N,GND*%
X179750000Y-58000000D03*
D19*
%TO.P,SW1,MP*%
%TO.N,unconnected-(SW1-PadMP)*%
X187250000Y-52400000D03*
X187250000Y-63600000D03*
D18*
%TO.P,SW1,S1,S1*%
%TO.N,GND*%
X194250000Y-55500000D03*
%TO.P,SW1,S2,S2*%
%TO.N,Net-(SW1-PadS2)*%
X194250000Y-60500000D03*
%TD*%
D10*
%TO.P,SW3,1,1*%
%TO.N,Net-(SW3-Pad1)*%
X182000000Y-68000000D03*
D14*
%TO.P,SW3,2,2*%
%TO.N,GND*%
X182000000Y-70540000D03*
%TD*%
D12*
%TO.P,R3,1*%
%TO.N,Net-(C1-Pad2)*%
X144920000Y-60000000D03*
D13*
%TO.P,R3,2*%
%TO.N,GND*%
X155080000Y-60000000D03*
%TD*%
D10*
%TO.P,SW2,1,1*%
%TO.N,Net-(SW2-Pad1)*%
X182000000Y-75000000D03*
D14*
%TO.P,SW2,2,2*%
%TO.N,GND*%
X182000000Y-77540000D03*
%TD*%
D17*
%TO.P,BZ1,1,-*%
%TO.N,GND*%
X191000000Y-99000000D03*
D18*
%TO.P,BZ1,2,+*%
%TO.N,Net-(U1-Pad11)*%
X186000000Y-99000000D03*
%TD*%
D12*
%TO.P,C1,1*%
%TO.N,Net-(C1-Pad1)*%
X144750000Y-64000000D03*
D13*
%TO.P,C1,2*%
%TO.N,Net-(C1-Pad2)*%
X137250000Y-64000000D03*
%TD*%
D20*
%TO.P,U3,1,GAIN*%
%TO.N,unconnected-(U3-Pad1)*%
X137200000Y-76800000D03*
D13*
%TO.P,U3,2,-*%
%TO.N,GND*%
X139740000Y-76800000D03*
%TO.P,U3,3,+*%
%TO.N,Net-(C4-Pad2)*%
X142280000Y-76800000D03*
%TO.P,U3,4,GND*%
%TO.N,GND*%
X144820000Y-76800000D03*
%TO.P,U3,5*%
%TO.N,Net-(C1-Pad1)*%
X144820000Y-69180000D03*
%TO.P,U3,6,V+*%
%TO.N,Net-(DISP1-Pad2)*%
X142280000Y-69180000D03*
%TO.P,U3,7,BYPASS*%
%TO.N,unconnected-(U3-Pad7)*%
X139740000Y-69180000D03*
%TO.P,U3,8,GAIN*%
%TO.N,unconnected-(U3-Pad8)*%
X137200000Y-69180000D03*
%TD*%
D10*
%TO.P,DISP1,1,VSS/GND*%
%TO.N,GND*%
X154000000Y-85375000D03*
D14*
%TO.P,DISP1,2,VDD*%
%TO.N,Net-(DISP1-Pad2)*%
X154000000Y-87915000D03*
%TO.P,DISP1,3,SCLK*%
%TO.N,Net-(DISP1-Pad3)*%
X154000000Y-92995000D03*
%TO.P,DISP1,4,SDA*%
%TO.N,Net-(DISP1-Pad4)*%
X154000000Y-90455000D03*
%TO.P,DISP1,5,RES*%
%TO.N,Net-(DISP1-Pad5)*%
X154000000Y-95535000D03*
%TO.P,DISP1,6,DC*%
%TO.N,Net-(DISP1-Pad6)*%
X154000000Y-98075000D03*
%TO.P,DISP1,7,CS*%
%TO.N,Net-(DISP1-Pad7)*%
X154000000Y-100615000D03*
%TD*%
D10*
%TO.P,SW4,1,1*%
%TO.N,Net-(SW4-Pad1)*%
X182000000Y-82000000D03*
D14*
%TO.P,SW4,2,2*%
%TO.N,GND*%
X182000000Y-84540000D03*
%TD*%
D12*
%TO.P,C4,1*%
%TO.N,Net-(C4-Pad1)*%
X132000000Y-93750000D03*
D13*
%TO.P,C4,2*%
%TO.N,Net-(C4-Pad2)*%
X132000000Y-86250000D03*
%TD*%
D10*
%TO.P,U1,1,GP0*%
%TO.N,Net-(SW1-PadA)*%
X176530000Y-54900000D03*
D11*
%TO.P,U1,2,GP1*%
%TO.N,Net-(SW1-PadB)*%
X176530000Y-57440000D03*
%TO.P,U1,3,GND*%
%TO.N,GND*%
X176530000Y-59980000D03*
%TO.P,U1,4,GP2*%
%TO.N,unconnected-(U1-Pad4)*%
X176530000Y-62520000D03*
%TO.P,U1,5,GP3*%
%TO.N,Net-(SW1-PadS2)*%
X176530000Y-65060000D03*
%TO.P,U1,6,GP4*%
%TO.N,Net-(SW3-Pad1)*%
X176530000Y-67600000D03*
%TO.P,U1,7,GP5*%
%TO.N,Net-(SW2-Pad1)*%
X176530000Y-70140000D03*
%TO.P,U1,8,GND*%
%TO.N,unconnected-(U1-Pad8)*%
X176530000Y-72680000D03*
%TO.P,U1,9,GP6*%
%TO.N,Net-(SW4-Pad1)*%
X176530000Y-75220000D03*
%TO.P,U1,10,GP7*%
%TO.N,Net-(SW5-Pad1)*%
X176530000Y-77760000D03*
%TO.P,U1,11,GP8*%
%TO.N,Net-(U1-Pad11)*%
X176530000Y-80300000D03*
%TO.P,U1,12,GP9*%
%TO.N,unconnected-(U1-Pad12)*%
X176530000Y-82840000D03*
%TO.P,U1,13,GND*%
%TO.N,unconnected-(U1-Pad13)*%
X176530000Y-85380000D03*
%TO.P,U1,14,GP10*%
%TO.N,unconnected-(U1-Pad14)*%
X176530000Y-87920000D03*
%TO.P,U1,15,GP11*%
%TO.N,unconnected-(U1-Pad15)*%
X176530000Y-90460000D03*
%TO.P,U1,16,GP12*%
%TO.N,unconnected-(U1-Pad16)*%
X176530000Y-93000000D03*
%TO.P,U1,17,GP13*%
%TO.N,unconnected-(U1-Pad17)*%
X176530000Y-95540000D03*
%TO.P,U1,18,GND*%
%TO.N,GND*%
X176530000Y-98080000D03*
%TO.P,U1,19,GP14*%
%TO.N,unconnected-(U1-Pad19)*%
X176530000Y-100620000D03*
%TO.P,U1,20,GP15*%
%TO.N,unconnected-(U1-Pad20)*%
X176530000Y-103160000D03*
%TO.P,U1,21,GP16*%
%TO.N,unconnected-(U1-Pad21)*%
X158750000Y-103160000D03*
%TO.P,U1,22,GP17*%
%TO.N,Net-(DISP1-Pad7)*%
X158750000Y-100620000D03*
%TO.P,U1,23,GND*%
%TO.N,unconnected-(U1-Pad23)*%
X158750000Y-98080000D03*
%TO.P,U1,24,GP18*%
%TO.N,Net-(DISP1-Pad3)*%
X158750000Y-95540000D03*
%TO.P,U1,25,GP19*%
%TO.N,Net-(DISP1-Pad4)*%
X158750000Y-93000000D03*
%TO.P,U1,26,GP20*%
%TO.N,Net-(DISP1-Pad6)*%
X158750000Y-90460000D03*
%TO.P,U1,27,GP21*%
%TO.N,Net-(DISP1-Pad5)*%
X158750000Y-87920000D03*
%TO.P,U1,28,GND*%
%TO.N,GND*%
X158750000Y-85380000D03*
%TO.P,U1,29,GP22*%
%TO.N,unconnected-(U1-Pad29)*%
X158750000Y-82840000D03*
%TO.P,U1,30,RUN*%
%TO.N,unconnected-(U1-Pad30)*%
X158750000Y-80300000D03*
%TO.P,U1,31,GP26/ADC0*%
%TO.N,Net-(R2-Pad2)*%
X158750000Y-77760000D03*
%TO.P,U1,32,GP27/ADC1*%
%TO.N,Net-(R1-Pad2)*%
X158750000Y-75220000D03*
%TO.P,U1,33,GND*%
%TO.N,unconnected-(U1-Pad33)*%
X158750000Y-72680000D03*
%TO.P,U1,34,GP28/ADC2*%
%TO.N,unconnected-(U1-Pad34)*%
X158750000Y-70140000D03*
%TO.P,U1,35,ADC_VREF*%
%TO.N,unconnected-(U1-Pad35)*%
X158750000Y-67600000D03*
%TO.P,U1,36,3V3*%
%TO.N,Net-(DISP1-Pad2)*%
X158750000Y-65060000D03*
%TO.P,U1,37,3V3_EN*%
%TO.N,unconnected-(U1-Pad37)*%
X158750000Y-62520000D03*
%TO.P,U1,38,GND*%
%TO.N,GND*%
X158750000Y-59980000D03*
%TO.P,U1,39,VSYS*%
%TO.N,unconnected-(U1-Pad39)*%
X158750000Y-57440000D03*
%TO.P,U1,40,VBUS*%
%TO.N,unconnected-(U1-Pad40)*%
X158750000Y-54900000D03*
%TD*%
D21*
%TO.N,Net-(C1-Pad1)*%
X148000000Y-60750000D02*
X148000000Y-53000000D01*
X144750000Y-64000000D02*
X148000000Y-60750000D01*
%TO.N,Net-(C4-Pad1)*%
X137130000Y-93750000D02*
X132000000Y-93750000D01*
X142000000Y-98620000D02*
X137130000Y-93750000D01*
D22*
%TO.N,Net-(R1-Pad2)*%
X152080000Y-73000000D02*
X156530000Y-73000000D01*
X150000000Y-75080000D02*
X152080000Y-73000000D01*
%TO.N,Net-(R2-Pad2)*%
X147080000Y-83000000D02*
X147080000Y-83380000D01*
X155000000Y-75080000D02*
X147080000Y-83000000D01*
X156070000Y-75080000D02*
X155000000Y-75080000D01*
X158750000Y-77760000D02*
X156070000Y-75080000D01*
%TO.N,Net-(R1-Pad2)*%
X144540000Y-82460000D02*
X144540000Y-83380000D01*
X150000000Y-77000000D02*
X144540000Y-82460000D01*
X150000000Y-75080000D02*
X150000000Y-77000000D01*
X158750000Y-75220000D02*
X156530000Y-73000000D01*
D23*
%TO.N,Net-(DISP1-Pad2)*%
X141455000Y-87915000D02*
X154000000Y-87915000D01*
X136920000Y-83380000D02*
X141455000Y-87915000D01*
D21*
%TO.N,Net-(C4-Pad2)*%
X140080000Y-79000000D02*
X142280000Y-76800000D01*
X132000000Y-81000000D02*
X134000000Y-79000000D01*
X132000000Y-86250000D02*
X132000000Y-81000000D01*
X134000000Y-79000000D02*
X140080000Y-79000000D01*
D23*
%TO.N,Net-(DISP1-Pad2)*%
X145000000Y-80000000D02*
X139000000Y-80000000D01*
X139000000Y-80000000D02*
X138000000Y-81000000D01*
X147000000Y-78000000D02*
X145000000Y-80000000D01*
X147000000Y-71000000D02*
X147000000Y-78000000D01*
X136920000Y-82080000D02*
X136920000Y-83380000D01*
X138000000Y-81000000D02*
X136920000Y-82080000D01*
%TO.N,Net-(C1-Pad2)*%
X140920000Y-64000000D02*
X144920000Y-60000000D01*
X137250000Y-64000000D02*
X140920000Y-64000000D01*
D21*
%TO.N,Net-(C1-Pad1)*%
X148000000Y-53000000D02*
X152500000Y-53000000D01*
D23*
%TO.N,Net-(DISP1-Pad2)*%
X144100000Y-71000000D02*
X142280000Y-69180000D01*
X147000000Y-71000000D02*
X144100000Y-71000000D01*
X150000000Y-66051370D02*
X147000000Y-69051370D01*
X147000000Y-69051370D02*
X147000000Y-71000000D01*
X150000000Y-64920000D02*
X150000000Y-66051370D01*
D21*
%TO.N,Net-(C3-Pad2)*%
X146000000Y-53000000D02*
X138000000Y-53000000D01*
X138000000Y-53000000D02*
X137000000Y-52000000D01*
%TO.N,Net-(C1-Pad1)*%
X144820000Y-64070000D02*
X144750000Y-64000000D01*
X144820000Y-69180000D02*
X144820000Y-64070000D01*
D23*
%TO.N,Net-(DISP1-Pad2)*%
X155000000Y-64920000D02*
X150000000Y-64920000D01*
X158750000Y-65060000D02*
X155140000Y-65060000D01*
X155140000Y-65060000D02*
X155000000Y-64920000D01*
D22*
%TO.N,Net-(DISP1-Pad5)*%
X155550480Y-93984520D02*
X155550480Y-91119520D01*
X155550480Y-91119520D02*
X158750000Y-87920000D01*
X154000000Y-95535000D02*
X155550480Y-93984520D01*
%TO.N,Net-(DISP1-Pad6)*%
X157000000Y-92210000D02*
X158750000Y-90460000D01*
X154000000Y-98075000D02*
X157000000Y-95075000D01*
X157000000Y-95075000D02*
X157000000Y-92210000D01*
%TO.N,Net-(DISP1-Pad7)*%
X154000000Y-100615000D02*
X158745000Y-100615000D01*
X158745000Y-100615000D02*
X158750000Y-100620000D01*
%TO.N,Net-(R2-Pad2)*%
X147080000Y-82920000D02*
X147080000Y-83380000D01*
%TO.N,Net-(U1-Pad11)*%
X178000000Y-93000000D02*
X178000000Y-81770000D01*
X180000000Y-95000000D02*
X178000000Y-93000000D01*
X178000000Y-81770000D02*
X176530000Y-80300000D01*
X182000000Y-95000000D02*
X180000000Y-95000000D01*
X186000000Y-99000000D02*
X182000000Y-95000000D01*
%TO.N,Net-(SW2-Pad1)*%
X182000000Y-75000000D02*
X181390000Y-75000000D01*
X181390000Y-75000000D02*
X176530000Y-70140000D01*
%TO.N,Net-(SW3-Pad1)*%
X182000000Y-68000000D02*
X176930000Y-68000000D01*
X176930000Y-68000000D02*
X176530000Y-67600000D01*
%TO.N,Net-(SW4-Pad1)*%
X179000000Y-77690000D02*
X176530000Y-75220000D01*
X179000000Y-79000000D02*
X179000000Y-77690000D01*
X182000000Y-82000000D02*
X179000000Y-79000000D01*
%TO.N,Net-(SW5-Pad1)*%
X179000000Y-80230000D02*
X176530000Y-77760000D01*
X182000000Y-89000000D02*
X180000000Y-89000000D01*
X179000000Y-88000000D02*
X179000000Y-80230000D01*
X180000000Y-89000000D02*
X179000000Y-88000000D01*
%TO.N,Net-(SW1-PadS2)*%
X179940000Y-65060000D02*
X176530000Y-65060000D01*
X183175489Y-61824511D02*
X179940000Y-65060000D01*
X192925489Y-61824511D02*
X183175489Y-61824511D01*
X194250000Y-60500000D02*
X192925489Y-61824511D01*
%TO.N,Net-(DISP1-Pad2)*%
X155940000Y-65060000D02*
X155800000Y-64920000D01*
X155940000Y-65060000D02*
X155140000Y-65060000D01*
%TO.N,Net-(SW1-PadA)*%
X179750000Y-55500000D02*
X177130000Y-55500000D01*
X177130000Y-55500000D02*
X176530000Y-54900000D01*
%TO.N,Net-(SW1-PadB)*%
X179750000Y-60500000D02*
X176690000Y-57440000D01*
X176690000Y-57440000D02*
X176530000Y-57440000D01*
%TD*%
M02*
